<svg width="1886" height="720" viewBox="0 0 1886 720" fill="none" xmlns="http://www.w3.org/2000/svg">
<path d="M1762.17 299.58C1759.46 294.94 1759.33 291.54 1761.98 286.86C1778.45 257.78 1794.64 228.55 1810.8 199.3C1812.03 197.07 1814.36 195.09 1813.67 191.8C1806.41 191.8 1799.19 192.09 1792.02 191.69C1787.84 191.46 1785.99 193.11 1784.21 196.67C1776.9 211.28 1769.17 225.67 1761.7 240.2C1755.92 251.44 1750.29 262.76 1744.19 274.84C1742.38 271.69 1741.11 269.6 1739.96 267.45C1727.46 244.09 1715 220.71 1702.47 197.36C1701.35 195.28 1700.98 192.03 1698.02 191.95C1689.05 191.7 1680.06 191.86 1670.06 191.86C1688.05 223.79 1705.15 254.47 1722.66 284.93C1725.64 290.11 1725.41 293.82 1722.5 298.88C1704.85 329.59 1687.55 360.49 1670.22 391.38C1668.99 393.57 1666.68 395.53 1667.55 398.68C1674.63 398.68 1681.6 398.41 1688.53 398.78C1692.86 399.01 1695.11 397.46 1697.09 393.64C1710.05 368.57 1723.26 343.64 1736.38 318.65C1737.8 315.94 1739.14 313.18 1740.94 309.59C1742.75 312.68 1744.04 314.72 1745.19 316.85C1758.96 342.33 1772.8 367.78 1786.37 393.37C1788.51 397.41 1790.91 399.03 1795.55 398.81C1803.22 398.44 1810.93 398.86 1818.62 398.94V397.45C1799.84 364.81 1781.16 332.11 1762.16 299.59L1762.17 299.58Z" fill="white"/>
<path d="M460.37 309.99C457.51 311.96 454.85 312.77 451.51 312.77C332.08 312.64 212.66 312.58 93.23 312.48C91.05 312.48 88.94 312.66 86.79 311.39C77.39 305.84 74.88 306.26 67.01 313.99V321.44C72.46 328.98 77.93 331.39 83.65 327.27C87.75 324.31 91.76 324.19 96.18 324.19C214.12 324.27 332.05 324.35 449.99 324.41C453.69 324.41 456.91 324.71 460.28 327.21C465.15 330.82 470.87 330.26 475.02 325.53C478.72 321.33 478.78 316.15 475.11 311.91C471.03 307.19 465.51 306.44 460.38 309.99H460.37Z" fill="#C2395B"/>
<path d="M146.99 336.01C124.73 336.33 105.41 344.15 88.24 357.94C86.34 359.46 84.86 362.08 82.17 361.91C75.09 361.47 70.81 365.54 67.01 370.61V379.55C70.84 385.57 75.74 390.16 83.42 388.17C90.89 386.24 94.3 380.81 93.56 373.03C93.37 371.02 94.48 369.93 95.87 368.72C108.01 358.21 122.06 351.98 137.9 349.53C141.78 348.93 143.32 349.89 143.11 354.05C142.81 359.99 143.04 365.96 143.04 371.92C143.04 381 141.79 382.47 132.97 382.94C131.1 383.04 129.18 382.23 127.28 381.82C120.78 380.43 113.85 384.29 111.86 390.41C109.61 397.31 112.8 404.26 119.45 406.95C125.85 409.54 133.8 407.45 135.8 401.05C137.87 394.42 142.44 393.52 147.54 393.39C154.07 393.23 156.29 390.06 156.25 384.08C156.16 371.17 156.13 358.27 156.26 345.36C156.33 338.91 153.88 335.89 146.99 335.99V336.01Z" fill="#C2395B"/>
<path d="M1808.67 529.53C1803.17 546.05 1797.09 562.37 1791.13 579.05C1788.41 576.78 1788.22 573.91 1787.32 571.43C1781.85 556.32 1776.17 541.27 1771.14 526.02C1769.22 520.18 1764.78 521.17 1761.62 522.2C1757.73 523.47 1761.16 526.71 1761.91 528.77C1769.04 548.28 1776.45 567.69 1783.59 587.19C1784.9 590.77 1786.19 592.8 1790.72 592.87C1795.57 592.95 1796.35 590.19 1797.59 586.9C1804.56 568.43 1811.6 549.99 1818.62 531.54V521.11C1812.97 521.18 1810.42 524.24 1808.66 529.52L1808.67 529.53Z" fill="white"/>
<path d="M183.95 600.79C178.95 596.66 173.57 596.46 168.28 600.23C163.41 603.69 161.42 611.38 165.39 616.04C169.32 620.65 168.97 625.45 168.99 630.55C169.02 639.45 168.99 648.35 169.01 657.25C169.02 661.68 169 666.13 171.36 670.14H180.3C181.72 667.2 182.11 664.13 182.07 660.86C181.95 650.48 182.07 640.09 182 629.71C181.97 625.02 182.03 620.83 185.69 616.79C189.89 612.15 188.58 604.64 183.93 600.8L183.95 600.79Z" fill="#C33A5C"/>
<path d="M134.14 296.08C173.14 296.13 212.13 296.11 251.13 296.11C305.03 296.11 358.93 296.1 412.83 296.13C418.09 296.13 423.98 295.6 423.95 289.24C423.92 282.84 417.96 282.44 412.73 282.46C401.8 282.51 390.87 282.47 379.94 282.47C374.99 282.47 370.04 282.47 363.93 282.47C367.72 278.56 370.21 275.82 372.88 273.27C379.19 267.27 384.25 260.09 394.22 258.57C400.26 257.65 402.17 251.38 400.75 245.41C399.4 239.72 395.39 236.57 389.41 236.56C382.64 236.55 377.85 240.47 377.88 246.73C377.92 253.35 373.9 256.38 370.3 260.29C368.47 262.28 367.06 262.73 364.91 260.47C359.26 254.54 353.41 248.79 347.55 243.07C345.73 241.29 345.53 239.82 347.6 238.24C355.41 232.25 359.66 222.05 371.2 220.31C377.73 219.33 379.97 213.48 378.68 207.02C377.43 200.75 373.16 197.82 366.95 197.83C360.88 197.83 355.54 202.41 355.9 208.5C356.2 213.48 354.05 216.31 350.91 219.25C347.83 222.13 345.02 225.31 341.89 228.13C340.17 229.68 338.96 233.01 336.07 231.78C333.38 230.63 334.32 227.56 334.21 225.11C333.91 218.21 329.64 214.09 322.91 213.95C316.46 213.82 311.9 217.63 311.11 223.83C310.22 230.78 313.92 235.85 321.08 236.99C323.81 237.43 326.34 237.62 328.48 239.8C337.7 249.19 347.07 258.43 356.35 267.77C357.3 268.72 358.8 269.4 358.1 271.38C356.94 274.63 346.24 283.08 343.2 282.39C337.04 280.99 333.75 277.28 333.59 270.47C333.47 265.34 330.14 261.68 325 260.5C320.08 259.37 315.52 260.35 312.4 264.72C309.38 268.94 309.1 273.41 311.76 277.99C312.58 279.4 314.7 280.09 314.1 282.49C309.43 282.49 304.69 282.21 300.01 282.57C295.28 282.94 294.09 280.96 294.15 276.56C294.34 260.42 294.27 244.28 294.2 228.14C294.18 223.91 295.59 220.64 298.7 217.63C308.17 208.49 317.41 199.12 326.66 189.75C329.67 186.71 332.27 184.42 337.43 185.35C343.53 186.45 348.46 181.57 349.21 175.52C349.99 169.32 346.56 164.03 340.73 162.4C335.14 160.84 327.84 163.82 326.91 169.38C325.8 175.99 321.52 179.74 317.33 183.89C308.16 192.98 299.09 202.18 289.69 211.02C285.57 214.89 283.73 219 283.91 224.72C284.29 236.77 284.03 248.84 284.03 262.25C277.64 256.62 271.96 252.84 271.4 244.48C270.97 238.09 265.56 235.18 259.64 235.5C253.72 235.81 249.42 239.18 248.7 245.67C248 252.01 251.52 258.3 257.29 258.47C270.35 258.86 274.54 270.43 282.45 277.21C284.61 279.06 284.58 282.32 279.97 282.5C268.58 282.94 257.61 283.81 249.68 272.27C244.7 265.03 237.51 259.21 230.88 253.23C226.86 249.6 226.56 247.51 230.72 243.46C252.96 221.81 274.85 199.8 296.83 177.88C300.87 173.86 304.61 170.11 311 169.22C317.24 168.35 319.7 163.05 319.08 156.88C318.43 150.48 314.41 147.16 308.2 146.73C302.31 146.32 296.69 149.06 296.72 154.8C296.77 164.54 290.23 169.19 284.63 174.86C276.35 183.26 276.11 183.4 267.9 174.62C264.47 170.96 258.67 168.71 260.19 161.45C261.55 154.96 256.9 149.64 250.62 148.72C244.72 147.86 239.04 151.49 237.39 157.18C235.65 163.16 238.59 169.77 244.92 171.33C253.98 173.56 258.4 181.09 264.25 186.85C269.02 191.54 271.54 187.08 253.1 205.74C252.75 206.09 252.34 206.4 252.05 206.8C249.45 210.41 247.28 209.61 244.48 206.67C237.29 199.12 229.79 191.86 222.4 184.5C219.63 181.74 217.02 179.59 218.4 174.45C219.86 168.98 214.52 163.03 208.87 162.2C202.72 161.3 198.11 163.82 195.69 169.55C193.38 175.01 195.62 182.6 201.18 183.98C211.29 186.48 216.45 194.57 223 201.01C228.74 206.66 239.37 211.72 238.69 218.38C238.04 224.77 228.41 230.24 222.72 236.11C222.37 236.47 221.98 236.78 221.68 237.17C219.25 240.37 217.14 239.86 214.5 237.11C207.09 229.42 199.49 221.92 191.88 214.43C188.49 211.1 185.71 208.04 185.71 202.49C185.71 196.26 179.47 192.25 173 192.86C166.94 193.43 162.54 198.19 162.43 204.27C162.32 210.43 166.43 215.59 172.67 215.7C177.16 215.78 179.99 217.67 182.9 220.6C201.62 239.46 220.47 258.19 239.2 277.03C240.65 278.49 242.95 279.44 243.18 282.07C232.42 282.07 221.82 282.03 211.22 282.09C208.04 282.11 206.38 279.94 204.52 277.96C194.87 267.62 185.26 257.25 175.54 246.97C173.07 244.36 171.53 241.77 171.42 237.88C171.21 230.65 166.28 226.62 159.2 226.99C152.77 227.32 148.61 231.53 148.39 237.92C148.14 245.1 151.98 249.39 159.44 250.11C161.39 250.3 163.38 249.85 164.97 251.56C174.01 261.29 183.08 270.98 193.47 282.1C185.42 282.1 179.3 281.92 173.19 282.16C168.84 282.33 166.6 281.71 166.48 276.31C166.34 270.09 161.83 266.56 155.61 266.21C149.37 265.86 144.1 268.92 143.74 275.03C143.31 282.3 139.63 282.24 134.33 282.21C128.66 282.18 120.55 280.74 120.73 289.32C120.88 297.02 128.51 296.1 134.12 296.11L134.14 296.08Z" fill="#C2395B"/>
<path d="M1036.75 304.11C1036.76 333.41 1036.86 362.72 1036.65 392.02C1036.61 397.03 1037.73 399.32 1043.18 398.77C1047.61 398.32 1052.15 398.33 1056.58 398.77C1061.82 399.28 1063.24 397.44 1063.19 392.22C1062.94 362.17 1063.09 332.13 1063.05 302.08C1063.05 294.88 1062.57 287.72 1061.35 280.6C1056.87 254.37 1039.49 240.16 1013.66 241.77C1003.17 242.42 994.07 246.64 985.63 252.66C978.67 257.62 972.72 263.75 965.97 270.01C957.87 248.95 942.36 240.78 921.26 241.77C910.19 242.29 900.6 246.76 891.94 253.27C886.46 257.39 881.42 262.07 875.35 267.2C875.17 264.52 875.07 263.03 874.96 261.55C873.73 245.25 873.72 245.52 857.61 245.31C852.05 245.23 851.22 247.2 851.28 252.11C851.53 275.45 851.39 298.79 851.39 322.14C851.39 345.49 851.5 369.32 851.29 392.91C851.25 397.47 852.46 399.15 857.13 398.78C862.07 398.39 867.09 398.33 872.02 398.79C877.15 399.27 878.11 397.2 878.07 392.51C877.87 363.21 879.1 333.84 877.51 304.63C876.66 289.08 883.04 280 894.73 272.47C895.77 271.8 896.8 271.1 897.85 270.45C920.12 256.7 940.65 266.6 943.51 292.46C943.65 293.69 943.75 294.93 943.76 296.17C943.96 323.97 944.19 351.77 944.31 379.57C944.39 398.83 944.33 398.58 963.61 398.85C969.25 398.93 970.58 397.41 970.54 391.87C970.26 359.09 970.39 326.31 970.44 293.53C970.44 291.15 969.68 288.58 971.73 286.48C980.23 277.72 988.85 269.1 1001.05 265.61C1016.17 261.28 1029.6 268.25 1034.11 282.8C1036.26 289.72 1036.75 296.92 1036.75 304.14V304.11Z" fill="white"/>
<path d="M1259.95 435.16C1263.25 451.69 1275.58 459.93 1290.57 464.36C1315.66 471.77 1340.61 470.58 1364.96 460.97C1375.23 456.92 1384.12 450.65 1390.97 441.74C1410.54 416.25 1398.87 386.23 1367.39 380.87C1351.57 378.18 1335.67 379.72 1319.81 379.37C1314.57 379.25 1309.37 379.08 1304.27 377.96C1290.54 374.96 1285.8 362.02 1294.19 350.69C1297 346.89 1299.62 345 1305.2 346.96C1335.38 357.6 1368.49 341.54 1376.5 312.7C1381.14 296.02 1378.82 280.38 1366.94 265.54C1376.39 265.54 1384.09 265.28 1391.77 265.64C1396.48 265.86 1398.06 264.1 1397.51 259.65C1397.3 257.94 1397.22 256.13 1397.52 254.45C1398.88 246.94 1395.88 245.28 1388.44 245.19C1370.19 244.98 1351.97 246.68 1333.63 242.84C1307.68 237.41 1282.81 248.98 1271.54 269.45C1261.07 288.48 1261.96 316.59 1281.91 334.91C1284.98 337.72 1283.62 338.82 1281.26 341.07C1263.21 358.36 1263.24 375.53 1281.29 392.74C1280.14 393.7 1279.05 394.68 1277.89 395.56C1264.7 405.51 1256.53 418.03 1259.94 435.17L1259.95 435.16ZM1293.88 278.68C1301.67 262.09 1321.69 255.81 1338.12 264.8C1348.61 270.54 1354.71 281.99 1354.76 296.03C1354.85 321.63 1333.51 338.57 1311.53 330.34C1292.9 323.37 1284.47 298.7 1293.88 278.67V278.68ZM1296 400.09C1296.91 399.43 1298.36 398.89 1299.4 399.1C1315.88 402.52 1332.61 399.39 1349.15 401.13C1351.37 401.36 1353.61 401.47 1355.81 401.82C1363.39 403.04 1370.5 405.12 1373.34 413.42C1376.23 421.88 1373.37 429.2 1367.7 435.3C1356.17 447.68 1340.83 450.18 1325.64 450.94C1315.23 450.3 1305.58 449.38 1296.73 445.01C1288.18 440.79 1282.13 434.28 1282.13 424.29C1282.13 413.84 1287.79 406.08 1296.01 400.1L1296 400.09Z" fill="white"/>
<path d="M655.4 347.47C657.42 322.82 646.06 305.07 624.41 293.67C620.91 291.83 617.27 290.24 613.69 288.55C597.58 280.96 580.56 275.35 565.08 266.41C553.73 259.85 547.79 250.15 549.97 236.71C551.99 224.27 560.19 217.33 571.76 213.93C590.08 208.53 606.98 212.41 623.1 221.84C627.36 224.33 630.61 231.05 635.38 229.22C639.64 227.59 642.14 221.61 645.7 217.83C648.52 214.84 648.34 212.91 645.12 210.19C619.29 188.34 590.23 182.04 558.4 193.58C532.92 202.82 520.21 224.29 523.19 250.71C525.4 270.33 537.7 283.01 554.4 291.42C569.63 299.1 585.51 305.5 601.06 312.55C608.3 315.83 615.56 319.28 620.99 325.26C635.59 341.34 628.59 367.35 607.17 375.01C583.27 383.56 561.43 377.61 540.91 363.98C536.33 360.94 532.97 353.38 527.78 354.99C523.12 356.43 520.27 363.18 516.19 367.14C512.71 370.52 513.07 372.65 516.59 375.8C535.89 393.06 558.3 402.08 588.77 402.29C594.78 402.56 605.04 401.12 614.95 397.52C638.47 388.96 653.29 372.93 655.38 347.48L655.4 347.47Z" fill="white"/>
<path d="M1615.38 380.35C1618.13 398.96 1618.13 398.69 1633.87 398.82C1639.09 398.86 1639.88 397 1639.84 392.43C1639.64 369.35 1639.78 346.28 1639.73 323.2C1639.71 311.3 1639.99 299.41 1638.38 287.55C1634.35 257.77 1616.16 241.75 1586.09 241.72C1569.86 241.7 1554.8 246.15 1540.41 253.33C1525.08 260.98 1525.26 260.88 1533.69 275.56C1535.98 279.55 1537.53 279.12 1540.82 277.03C1550.92 270.63 1561.71 265.84 1573.67 263.88C1596.84 260.1 1611.68 272.13 1613.08 295.61C1613.37 300.48 1612.09 301.7 1607.28 302.31C1585.88 305 1564.55 308.29 1545.08 318.48C1524.23 329.39 1515.64 347.78 1520.65 370.55C1525.7 393.49 1549.18 406.64 1575.49 401.27C1590.44 398.22 1602.83 390.16 1615.38 380.35ZM1546.26 365.24C1542.28 351.97 1547.69 339.72 1561.21 332.43C1576.28 324.31 1592.89 321.69 1609.59 319.41C1613.19 318.92 1613.16 320.73 1613.15 323.13C1613.13 328.82 1613.15 334.52 1613.15 340.21C1613.15 340.71 1613.22 341.21 1613.15 341.69C1612.02 348.79 1616.52 357.24 1610.63 362.92C1600.76 372.43 1589.28 379.94 1574.96 380.97C1559.87 382.05 1549.57 376.24 1546.27 365.24H1546.26Z" fill="white"/>
<path d="M797.67 398.67C802.68 399.56 803.83 397.29 803.8 392.51C803.59 362.49 803.8 332.47 803.61 302.45C803.57 296.04 802.93 289.56 801.8 283.25C797.1 256.97 779.35 242.2 752.63 241.71C735.37 241.39 719.36 245.86 704.1 253.57C689.21 261.09 689.33 261.02 697.8 275.37C699.92 278.96 701.28 279.53 704.95 277.1C715.15 270.35 726.3 265.65 738.5 263.74C759.11 260.51 773.26 270.13 776.51 289.6C777.77 297.153 774.627 301.543 767.08 302.77C765.12 303.09 763.14 303.25 761.19 303.57C742.1 306.74 723.07 310.25 706.09 320.25C687.67 331.1 679.93 349.76 684.93 370.54C690.61 394.17 714.09 406.99 740.43 401.1C755.05 397.83 767.2 389.99 779.7 380.25C780.61 386.79 779.78 392.99 782.42 396.77C785.7 401.45 792.51 397.74 797.69 398.66L797.67 398.67ZM760.2 373.95C747.42 381.15 734.24 384.32 720.53 377.57C708.23 371.51 705.46 352.77 714.59 341.26C719.37 335.24 725.84 331.64 732.82 328.88C745.58 323.83 758.96 321.49 772.48 319.55C776.96 318.91 777.53 320.58 777.41 324.23C777.23 329.68 777.36 335.15 777.36 340.6C777.36 342.09 777.08 343.64 777.4 345.06C780.85 360.2 771.58 367.53 760.19 373.95H760.2Z" fill="white"/>
<path d="M1222.2 291.86C1220.14 258.69 1200.36 241.13 1167.1 241.75C1151.69 242.04 1137.15 246.16 1123.73 253.44C1104.88 263.67 1108.58 258.55 1117.24 275.75C1119.07 279.39 1120.59 279.23 1123.8 277.21C1133.48 271.13 1143.76 266.39 1155.17 264.25C1179.91 259.62 1195.33 271.64 1196.75 296.72C1196.97 300.55 1195.8 301.85 1191.91 302.18C1185.01 302.76 1178.12 303.82 1171.31 305.1C1153.48 308.46 1135.79 312.49 1120.69 323.29C1104.71 334.72 1100.33 350.81 1103.93 369.31C1107.35 386.89 1119.54 398.39 1137.67 401.47C1150.74 403.69 1163.3 401.46 1175.3 395.7C1183.54 391.74 1190.74 386.17 1198.81 380.61C1199.74 386.62 1198.93 393.17 1201.79 396.92C1205.28 401.49 1212.37 397.85 1217.83 398.65C1221.5 399.19 1223.19 397.91 1223.14 393.82C1222.66 359.83 1224.32 325.8 1222.22 291.85L1222.2 291.86ZM1180.9 373.16C1168.02 380.35 1154.81 384.5 1140.63 378.04C1125.29 371.05 1123.99 348.27 1138.12 336.82C1149.88 327.29 1164.34 324.52 1178.65 321.57C1182.76 320.72 1187.03 320.61 1191.11 319.65C1196.13 318.46 1197.07 320.6 1196.81 325.01C1196.5 330.19 1196.74 335.41 1196.74 340.61C1196.74 341.85 1196.52 343.14 1196.77 344.32C1199.85 358.57 1192.4 366.74 1180.89 373.17L1180.9 373.16Z" fill="white"/>
<path d="M1496.77 265.31C1500.86 265.57 1505.92 268.9 1508.57 266.41C1511.11 264.03 1510.76 258.59 1511.7 254.51C1512.04 253.06 1512.37 251.6 1512.86 250.2C1514.52 245.43 1512.27 243.41 1507.83 242.6C1495 240.26 1483.21 242.31 1472.62 250.33C1465 256.1 1459.5 263.64 1453.39 273.15C1452.84 267.75 1452.33 264.07 1452.1 260.37C1451.14 245.36 1451.17 245.62 1436.14 245.3C1430.72 245.19 1429.1 246.37 1429.14 252.11C1429.42 294.56 1429.24 337.02 1429.34 379.48C1429.35 385.62 1426.63 393.73 1430.45 397.4C1434.58 401.36 1442.75 398.05 1449.1 398.74C1454.41 399.32 1455.76 397.23 1455.71 392.1C1455.48 365.04 1456.03 337.97 1455.45 310.92C1455.07 293.39 1464 281.43 1476.52 271.29C1482.23 266.67 1489.24 264.84 1496.75 265.31H1496.77Z" fill="white"/>
<path d="M465.55 362.19C461.76 361.78 459.23 360.17 456.5 357.95C439.65 344.21 420.51 336.57 398.57 336.03C391.61 335.86 388.42 338.34 388.72 345.47C389 351.9 388.78 358.36 388.78 364.81C388.78 371.26 388.9 377.71 388.75 384.15C388.6 390.18 390.85 393.14 397.35 393.52C400.95 393.74 405.66 392.7 407.69 398.45C410.58 406.62 417.52 409.7 424.73 407.21C431.4 404.9 435.2 397.77 433.28 391.14C431.19 383.89 424.05 380.43 415.44 382.49C406.6 384.6 401.69 380.85 401.58 371.81C401.51 366.11 401.87 360.38 401.47 354.71C401.11 349.68 403.13 348.91 407.55 349.65C423.06 352.23 436.84 358.38 448.87 368.57C451.02 370.39 451.43 372.35 451.49 375.01C451.7 383.32 456.6 388.38 464.08 388.52C471.35 388.66 477 383.58 477.52 376.45C478.08 368.81 473.68 363.1 465.55 362.22V362.19Z" fill="#C2395B"/>
<path d="M1278.42 497.03C1273.46 497.01 1268.46 497.37 1263.54 496.93C1258.24 496.46 1256.23 497.7 1256.46 503.63C1256.99 517.25 1256.63 530.91 1256.63 544.55C1256.63 558.94 1256.75 573.32 1256.55 587.71C1256.5 591.48 1257.4 592.93 1261.44 592.74C1268.62 592.4 1275.84 592.85 1283.02 592.57C1303.7 591.75 1317.94 579.58 1322 559.36C1323.27 553.03 1323.8 546.6 1323.46 540.13C1321.97 511.69 1306.76 497.13 1278.43 497.04L1278.42 497.03ZM1311.58 559.32C1307.76 575.14 1296.24 583.63 1278.76 583.7C1270.48 583.733 1266.34 579.63 1266.34 571.39C1266.34 562.45 1266.34 553.52 1266.34 544.58C1266.34 533.41 1266.46 522.24 1266.27 511.07C1266.21 507.39 1267.02 505.55 1271.15 505.9C1275.1 506.23 1279.1 505.85 1283.06 506.05C1297.77 506.8 1308.21 515.49 1311.64 529.82C1313.99 539.64 1313.96 549.51 1311.59 559.32H1311.58Z" fill="white"/>
<path d="M1645.52 548.24C1645.59 544.54 1644.12 543.58 1640.7 543.66C1633.25 543.85 1625.79 543.91 1618.35 543.64C1614.26 543.49 1614.24 545.7 1614.07 548.72C1613.87 552.31 1615.65 552.61 1618.55 552.73C1624.18 552.96 1631.66 550.1 1634.94 554C1638.37 558.06 1635.68 565.45 1635.99 571.38C1636.04 572.37 1635.88 573.38 1636.01 574.36C1636.59 578.56 1634.29 580.61 1630.79 582.25C1614.7 589.8 1596.27 582.86 1589.26 566.34C1585.18 556.74 1584.65 546.65 1585.86 536.4C1587.44 523 1592.79 511.81 1606.03 506.67C1618.48 501.84 1629.86 504.34 1638.98 514.55C1646.08 507.43 1646.08 507.33 1638.46 501.79C1619.88 488.26 1590.9 495.73 1580.97 517.59C1572.21 536.86 1572.33 556.73 1582.82 575.54C1594.05 595.68 1623.94 600.84 1641.89 586.28C1644.11 584.48 1645.58 582.68 1645.52 579.51C1645.32 569.09 1645.32 558.65 1645.52 548.23V548.24Z" fill="white"/>
<path d="M308.32 138.18C302.99 129.87 297.82 122.3 290.25 120.8C274.15 117.6 274.44 106.93 275.46 94.94C275.65 92.74 275.49 90.5 275.49 87.04C278.63 88.8 280.83 89.54 282.4 90.98C292.83 100.57 302.38 99.53 312.25 89.75C316.66 85.38 321.94 86.85 325.62 92.14C326.32 93.14 326.55 94.51 327.34 95.4C330.67 99.15 334.73 100.62 339.25 97.78C343.61 95.04 344.91 90.89 342.74 86.17C340.47 81.23 335.06 79.29 331.6 81.93C324.72 87.17 320.86 82.5 316.3 79.27C311.66 75.99 307.22 72.43 302.73 69.02C303.7 66.42 305.94 65.59 307.69 64.3C318.26 56.54 318.25 56.59 327.94 66.19C331.89 70.1 336.39 70.51 340.56 66.85C344.74 63.18 345.07 58.39 341.49 54.27C337.63 49.83 332.7 49.96 328.27 53.64C326.51 55.1 325.22 57.43 322.9 55.08C318 50.11 314.2 53.13 310.16 56.33C307.05 58.79 303.73 60.99 300.46 63.24C298.86 64.34 297.44 65.61 295.14 64.14C288.88 60.14 282.34 56.57 276.18 52.42C274.59 51.35 273.65 49.2 271.34 50.05C268.46 51.11 269.49 53.64 269.49 55.78C269.52 73.16 269.35 90.54 269.62 107.92C269.7 113.38 267.61 116 262.41 117.3C251.31 120.06 243.66 127.47 236.15 138.11C260.85 127.69 284.05 127.76 308.32 138.17V138.18ZM275.62 58.75C288.2 65.32 298.98 72.14 309.1 80.04C312.31 82.54 311.9 84.11 308.77 85.9C308.56 86.02 308.35 86.16 308.15 86.31C297.81 94.23 298.37 92.88 286.54 88C271.67 81.86 275.94 70.48 275.61 58.74L275.62 58.75Z" fill="#C2395B"/>
<path d="M358.18 355.71C361.14 355.71 364.28 356.14 366.23 353.13C367.53 351.13 367.72 348.99 366.65 346.77C364.86 343.04 361.45 343.57 358.27 343.56C303.18 343.34 248.1 343.12 193.01 342.94C189.54 342.93 186.04 342.97 182.61 343.39C179.17 343.82 177.4 346.25 177.48 349.62C177.56 352.71 179.53 354.65 182.48 355.28C184.15 355.63 185.94 355.46 187.67 355.47C215.96 355.47 244.25 355.47 272.54 355.47C272.54 355.55 272.54 355.63 272.54 355.7C301.08 355.7 329.62 355.7 358.16 355.7L358.18 355.71Z" fill="#C2395B"/>
<path d="M584.44 543.65C577 543.89 569.54 543.87 562.1 543.65C558.61 543.55 557.37 544.55 557.34 548.21C557.31 551.89 558.57 552.92 562.05 552.72C566.5 552.47 570.98 552.67 575.45 552.66C577.54 552.66 579.55 552.66 579.55 555.57C579.55 562.77 579.55 569.96 579.55 577.16C579.55 579.96 577.21 580.83 575.34 581.84C562.21 588.96 544.65 584.67 536.29 572.38C526.42 557.87 526.43 531.67 536.31 517.25C545.95 503.18 565.96 500.12 578.72 511C581.54 513.4 583.01 514.77 586.27 511.22C590.02 507.13 586.59 505.67 584.51 503.79C567.66 488.53 537.58 494.08 526.07 514.84C516.88 531.41 516.46 549.05 522.33 566.68C530.14 590.16 554.06 600.61 577.07 591.18C587.35 586.97 589.01 584.53 589.01 573.66C589.01 570.43 589.01 567.21 589.01 563.98C589.01 558.77 588.84 553.55 589.07 548.35C589.23 544.83 588.07 543.53 584.43 543.64L584.44 543.65Z" fill="white"/>
<path d="M377.18 507.81C372.13 503.64 366.7 503.55 361.46 507.4C356.31 511.18 354.88 518.78 359.11 523.91C362.15 527.59 362.45 531.27 362.45 535.51C362.4 574.98 362.42 614.44 362.42 653.91C362.42 658.8 362.4 664.13 369.14 664.03C375.86 663.93 375.63 658.61 375.62 653.72C375.58 633.86 375.6 614.01 375.6 594.15C375.6 574.29 375.6 554.44 375.6 534.58C375.6 530.9 375.71 527.7 378.66 524.47C383.18 519.53 382.11 511.87 377.19 507.81H377.18Z" fill="#C23A5B"/>
<path d="M296.49 559.07C301.03 562.94 308.5 562.87 312.92 558.92C317.52 554.8 318.71 547.74 314.49 542.88C311.49 539.42 311.26 535.97 311.26 532C311.28 492.58 311.28 453.15 311.26 413.73C311.26 408.76 311.88 402.85 304.51 402.98C297.11 403.11 298.11 409.11 298.1 414C298.07 433.84 298.09 453.67 298.09 473.51C298.09 493.35 298.07 511.69 298.11 530.79C298.11 535.23 298 539.17 294.61 543.04C290.46 547.78 291.89 555.15 296.5 559.09L296.49 559.07Z" fill="#C23A5B"/>
<path d="M246.76 622.42C246.8 603.57 246.78 584.72 246.78 565.86C246.78 550.23 246.78 534.61 246.78 518.98C246.78 514.27 246.86 509.55 246.75 504.84C246.64 500.4 245.15 496.87 239.87 497.12C235.15 497.35 233.66 500.49 233.75 504.76C233.79 506.74 233.75 508.73 233.75 510.71C233.75 547.92 233.75 585.13 233.75 622.33C233.75 625.76 233.77 628.83 231.04 631.88C226.36 637.08 227.01 644.15 231.66 648.57C236.42 653.1 243.55 653.15 248.49 648.69C253.25 644.39 254.05 637.46 249.58 632C247.08 628.95 246.76 625.92 246.77 622.42H246.76Z" fill="#C33A5C"/>
<path d="M184.47 424.96C179.96 420.5 173.18 420.11 168.2 424.02C163.4 427.79 161.51 435.15 165.46 439.96C169.08 444.36 169.01 448.89 169.01 453.8C169.01 488.52 168.96 523.25 169.06 557.97C169.07 562.79 168.43 568.9 175.85 568.79C182.78 568.68 182.04 563.08 182.04 558.36C182.04 540.75 182.04 523.14 182.04 505.53C182.04 487.92 182.08 469.32 182.01 451.21C181.99 447.43 182.33 444.24 185.25 441.11C189.55 436.5 188.78 429.25 184.47 424.97V424.96Z" fill="#C33A5C"/>
<path d="M1083.15 538.31C1081.54 525.04 1071.98 518.85 1058.62 520.56C1051.95 521.41 1046.7 524.98 1040.47 529.71C1040.47 516.84 1040.41 505.19 1040.51 493.54C1040.54 490.27 1040.53 488.06 1035.97 488.15C1031.58 488.23 1030.66 489.7 1030.68 493.75C1030.82 525.03 1030.81 556.32 1030.69 587.6C1030.68 591.34 1031.53 592.81 1035.6 592.79C1039.49 592.78 1040.63 591.73 1040.57 587.8C1040.33 573.9 1040.65 559.99 1040.37 546.09C1040.29 542.18 1041.62 539.58 1044.37 537.13C1050.77 531.42 1057.9 526.83 1066.55 530.45C1074.89 533.94 1074.37 542.33 1074.46 549.75C1074.62 562.66 1074.59 575.57 1074.44 588.48C1074.4 591.71 1075.37 593.16 1078.65 592.63C1080.77 592.29 1084.03 593.95 1083.95 589.64C1083.63 572.52 1085.22 555.32 1083.15 538.3V538.31Z" fill="white"/>
<path d="M1544.08 567.18C1543.98 567.18 1543.88 567.18 1543.78 567.18C1543.78 559.49 1544.41 551.74 1543.66 544.13C1541.69 524.37 1529.68 516.44 1510.5 521.72C1505.7 523.04 1501.32 525.34 1496.99 527.8C1493.74 529.65 1493.91 531.23 1495.72 534.13C1497.61 537.16 1498.98 537.63 1501.93 535.36C1506.5 531.82 1511.88 529.94 1517.68 529.28C1526.29 528.3 1532.09 532.52 1533.75 540.98C1534.58 545.19 1534.34 547.62 1528.7 548.18C1518.61 549.17 1508.57 551.29 1499.86 557.08C1491.98 562.32 1489.07 571.12 1491.8 580.64C1494.28 589.27 1500.88 593.8 1510.8 594.19C1518.36 594.49 1524.88 591.82 1531.06 587.93C1533.21 586.58 1535.2 585.31 1535.19 589.47C1535.18 594.25 1538.77 592.37 1541.08 592.6C1544.73 592.96 1544.05 590.15 1544.07 588.04C1544.11 581.09 1544.09 574.14 1544.09 567.19L1544.08 567.18ZM1508.29 584.88C1504.24 583.59 1501.52 580.93 1500.95 576.48C1500.28 571.2 1501.35 566.6 1506.1 563.52C1513.79 558.54 1522.66 557.36 1531.39 555.74C1534.08 555.24 1534.11 557.01 1534.13 558.82C1534.15 561.29 1534.13 563.77 1534.13 566.24C1534.13 578.76 1520.38 588.73 1508.28 584.88H1508.29Z" fill="white"/>
<path d="M900.51 521.03C882.72 517.61 867.6 528.5 863.91 548.28C861.08 563.46 863.45 577.86 876.47 587.88C888.01 596.76 900.85 596.16 913.6 589.89C916.71 588.36 919.91 587.51 917.2 582.44C914.32 577.04 912.16 580.93 909.81 582.17C894 590.53 876.95 582.84 873.54 565.84C872.73 561.79 872.74 559.32 878.18 559.76C884.34 560.26 890.57 559.88 896.77 559.87C903.47 559.87 910.16 559.91 916.86 559.84C918.45 559.82 920.13 560.32 921.13 558.01C926.59 545.37 914.6 523.75 900.5 521.04L900.51 521.03ZM908.44 551.17C903.25 551.17 898.07 551.17 892.88 551.17C887.69 551.17 882.5 551.2 877.32 551.15C875.46 551.13 873.42 551.72 873.45 548.38C873.54 538.15 886.36 527.42 896.72 529.17C905.55 530.66 912.24 539.19 912.17 548.24C912.15 551.43 910.45 551.17 908.45 551.17H908.44Z" fill="white"/>
<path d="M1404.41 546.12C1404.07 526.25 1392.44 517.05 1373.17 521.24C1367.83 522.4 1362.93 524.78 1358.17 527.51C1354.85 529.42 1354.52 531.15 1356.59 534.52C1358.92 538.31 1360.65 536.48 1362.95 534.96C1367.56 531.93 1372.55 529.88 1378.11 529.3C1387.11 528.37 1392.06 532.03 1394.39 540.73C1395.77 545.88 1394.48 547.59 1389.05 548.21C1378.97 549.37 1368.92 551.34 1360.28 557.24C1352.64 562.46 1349.72 571.78 1352.49 581C1354.9 589.03 1361.77 593.64 1371.15 594.18C1379.85 594.69 1386.97 590.98 1395.03 585.85C1395.53 590.54 1396.68 593.69 1401.8 592.67C1406.88 591.66 1404.25 587.84 1404.31 585.54C1404.62 572.4 1404.64 559.24 1404.41 546.1V546.12ZM1395 566.72C1394.73 570.93 1396.27 575.84 1390.59 579.22C1383.8 583.26 1377.18 586.93 1369.02 584.87C1364.46 583.72 1361.98 580.32 1361.36 575.78C1360.67 570.68 1362.54 566.46 1366.81 563.57C1374.44 558.41 1383.4 557.4 1392.14 555.72C1394.63 555.24 1395.04 556.78 1395 558.77C1394.95 561.25 1394.99 563.73 1394.99 566.71L1395 566.72Z" fill="white"/>
<path d="M1685.13 529.66C1677.64 537.46 1675.35 547.17 1675.59 557.62C1675.59 559.6 1675.42 561.59 1675.62 563.55C1677.26 579.98 1689.47 593.09 1704.03 594.12C1720.23 595.27 1733.25 585.9 1737.56 569.73C1740.1 560.18 1739.79 550.57 1736.46 541.26C1728.62 519.31 1701.02 513.1 1685.14 529.66H1685.13ZM1729.18 557.99C1729.05 574.05 1719.72 585.56 1706.96 585.42C1694.48 585.28 1685.56 574.17 1685.25 558.27C1685.11 551.19 1686.48 544.44 1690.54 538.48C1699.04 526.02 1715.99 526.18 1724.11 538.87C1727.81 544.65 1729.47 551.09 1729.18 557.99Z" fill="white"/>
<path d="M682.56 551.89C680.8 537.92 674.89 526.88 660.73 521.99C648.84 517.89 635.94 521.43 627.66 530.88C615.64 544.59 616.04 571.02 628.48 584.4C642.34 599.31 666.13 597.06 676.91 579.73C681.21 572.82 683.02 565.21 682.59 557.08C682.59 555.35 682.78 553.59 682.56 551.89ZM650.67 585.42C638.02 585.29 629.13 573.79 628.98 557.69C628.93 551.87 629.93 546.35 632.6 541.23C636.41 533.95 642.18 529.4 650.79 529.33C659.43 529.26 665.14 533.85 669.13 541.02C671.96 546.11 672.68 551.74 672.96 557.44C672.93 573.85 663.61 585.54 650.66 585.4L650.67 585.42Z" fill="white"/>
<path d="M843.86 496.95C824 497.09 804.14 497.05 784.28 496.99C781.38 496.99 779.63 497.45 779.75 501.01C779.86 504.15 780.14 506.19 784.13 506.04C790.82 505.78 797.55 506.24 804.23 505.88C808.62 505.64 809.56 507.29 809.49 511.35C809.26 524 809.4 536.66 809.4 549.32C809.4 561.48 809.31 573.64 809.47 585.8C809.51 588.69 807.45 592.7 813.74 592.87C819.83 593.04 819.15 589.72 819.15 585.92C819.11 561.6 819.28 537.28 819.01 512.96C818.95 507.67 819.88 505.28 825.8 505.86C831.7 506.44 837.71 505.84 843.66 506.04C847.05 506.16 848.52 505.27 848.54 501.54C848.56 497.92 847.38 496.94 843.86 496.96V496.95Z" fill="white"/>
<path d="M993.1 580.31C978.25 590.71 961.85 584.54 957.43 566.87C955.91 560.8 955.91 554.53 957.4 548.45C961.82 530.45 976.82 524.53 992.39 534.85C995.63 537 996.55 535.29 998.29 533.5C1000.42 531.32 1000.86 529.49 998.14 527.43C993.94 524.25 989.54 521.67 984.21 520.79C963.31 517.34 946.6 533.46 946.57 557.2C946.57 558.69 946.43 560.19 946.59 561.67C948.02 574.36 952.43 585.44 964.79 591.19C976.29 596.54 987.49 595.14 997.86 587.85C1000.44 586.04 1003.28 584.56 1000.08 580.31C997.14 576.41 995.61 578.54 993.09 580.31H993.1Z" fill="white"/>
<path d="M1464.51 584.56C1455.18 587.27 1450.79 584.03 1450.44 574.34C1450.11 565.17 1450.21 555.98 1450.19 546.81C1450.17 536.623 1455.1 531.3 1464.97 530.84C1465.22 530.83 1465.47 530.81 1465.71 530.84C1469.05 531.29 1469.87 529.69 1469.9 526.55C1469.93 523.17 1469.17 521.57 1465.4 521.75C1460.7 521.98 1454.67 523.4 1451.6 521.11C1447.82 518.29 1450.4 511.87 1450.29 507.03C1450.2 503.37 1448.89 502.42 1445.47 502.35C1442 502.29 1441.28 503.79 1441.41 506.81C1441.55 510.02 1440.99 513.28 1441.28 516.47C1441.7 521.06 1439.92 522.79 1435.38 522.44C1432.67 522.23 1430.02 522.24 1430.14 526.55C1430.25 530.5 1432.17 531.24 1435.29 530.8C1440.41 530.08 1440.9 532.96 1440.75 537.02C1440.52 543.22 1440.69 549.43 1440.69 555.63H1440.73C1440.73 562.08 1440.45 568.55 1440.79 574.98C1441.62 590.81 1451.38 597.45 1466.59 592.91C1469.51 592.04 1472.51 591.81 1471.1 587.24C1469.85 583.2 1467.95 583.55 1464.52 584.55L1464.51 584.56Z" fill="white"/>
<path d="M763.74 522.41C761.92 521.31 758.87 521.72 756.51 522.18C753.86 522.69 753.99 525.66 753.28 527.62C747.04 544.77 740.94 561.98 734.36 580.38C732.78 576.19 731.64 573.3 730.58 570.38C725.22 555.49 719.64 540.66 714.66 525.64C712.84 520.14 708.75 521.4 705.69 522.09C700.71 523.21 704.75 526.62 705.39 528.38C712.55 548.14 720.11 567.76 727.36 587.49C728.71 591.17 730.28 592.88 734.63 592.84C738.94 592.8 739.88 590.66 741.07 587.4C748.29 567.65 755.75 547.99 762.93 528.24C763.59 526.43 766.25 523.92 763.72 522.4L763.74 522.41Z" fill="white"/>
<path d="M1169.24 483.96C1163.74 483.98 1164.92 487.53 1164.91 490.51C1164.86 512.36 1164.88 534.2 1164.88 556.05C1164.88 577.9 1164.9 599.74 1164.86 621.59C1164.86 624.93 1164.4 627.99 1169.56 627.84C1174.68 627.7 1173.37 624.29 1173.37 621.63C1173.42 577.94 1173.43 534.25 1173.36 490.56C1173.36 487.74 1174.93 483.94 1169.22 483.97L1169.24 483.96Z" fill="white"/>
<path d="M376.95 417.76C371.85 413.76 366.3 413.91 361.19 417.69C356.06 421.48 354.88 429.08 359.25 434.21C362.2 437.68 362.47 441.14 362.42 445.1C362.37 449.56 362.41 454.02 362.41 458.47C362.41 463.67 362.39 468.87 362.41 474.07C362.44 478.78 363.8 482.66 369.42 482.46C374.63 482.27 375.63 478.52 375.61 474.12C375.55 464.46 375.61 454.8 375.58 445.14C375.57 441.2 375.76 437.75 378.77 434.29C383.24 429.14 382.09 421.79 376.94 417.75L376.95 417.76Z" fill="#C33A5B"/>
<path d="M311.25 610.68C311.25 605.09 311.33 599.9 311.23 594.7C311.14 590.17 309.22 586.81 304.2 587.08C299.67 587.33 298.03 590.49 298.06 594.79C298.12 602.95 298.02 611.11 298.09 619.27C298.13 624.41 298.11 629.04 294.27 633.63C290.44 638.2 291.57 643.99 296.05 648.35C300.77 652.95 306.25 653.39 311.59 649.75C316.62 646.31 319.38 640.37 315.84 635.63C309.79 627.54 311.73 618.88 311.26 610.68H311.25Z" fill="#C33A5B"/>
<path d="M246.73 438.41C246.93 434.46 246.78 430.5 246.78 426.55C246.78 421.85 246.75 417.16 246.79 412.46C246.84 407.72 246.42 402.92 240.34 402.78C234.2 402.64 233.66 407.3 233.72 412.14C233.82 420.54 233.7 428.95 233.77 437.36C233.81 441.33 233.46 444.72 230.45 448.13C226.05 453.12 227.33 460.54 232.24 464.71C236.93 468.7 243.86 468.55 248.49 464.36C253.34 459.97 254.21 452.96 249.64 447.79C247.01 444.82 246.55 441.96 246.73 438.42V438.41Z" fill="#C33A5C"/>
</svg>
