<?xml version="1.0" encoding="UTF-8"?>
<svg id="Layer_1" data-name="Layer 1" xmlns="http://www.w3.org/2000/svg" viewBox="0 0 1885.65 720">
  <defs>
    <style>
      .cls-1 {
        fill: #14205a;
      }

      .cls-1, .cls-2, .cls-3, .cls-4, .cls-5, .cls-6, .cls-7, .cls-8, .cls-9, .cls-10 {
        stroke-width: 0px;
      }

      .cls-2 {
        fill: #c2395b;
      }

      .cls-3 {
        fill: #101c57;
      }

      .cls-4 {
        fill: #0e1a55;
      }

      .cls-5 {
        fill: #0e1a56;
      }

      .cls-6 {
        fill: #c33a5b;
      }

      .cls-7 {
        fill: #0d1955;
      }

      .cls-8 {
        fill: #c23a5b;
      }

      .cls-9 {
        fill: #c33a5c;
      }

      .cls-10 {
        fill: #0f1b56;
      }
    </style>
  </defs>
  <path class="cls-7" d="M1762.17,299.58c-2.71-4.64-2.84-8.04-.19-12.72,16.47-29.08,32.66-58.31,48.82-87.56,1.23-2.23,3.56-4.21,2.87-7.5-7.26,0-14.48.29-21.65-.11-4.18-.23-6.03,1.42-7.81,4.98-7.31,14.61-15.04,29-22.51,43.53-5.78,11.24-11.41,22.56-17.51,34.64-1.81-3.15-3.08-5.24-4.23-7.39-12.5-23.36-24.96-46.74-37.49-70.09-1.12-2.08-1.49-5.33-4.45-5.41-8.97-.25-17.96-.09-27.96-.09,17.99,31.93,35.09,62.61,52.6,93.07,2.98,5.18,2.75,8.89-.16,13.95-17.65,30.71-34.95,61.61-52.28,92.5-1.23,2.19-3.54,4.15-2.67,7.3,7.08,0,14.05-.27,20.98.1,4.33.23,6.58-1.32,8.56-5.14,12.96-25.07,26.17-50,39.29-74.99,1.42-2.71,2.76-5.47,4.56-9.06,1.81,3.09,3.1,5.13,4.25,7.26,13.77,25.48,27.61,50.93,41.18,76.52,2.14,4.04,4.54,5.66,9.18,5.44,7.67-.37,15.38.05,23.07.13v-1.49c-18.78-32.64-37.46-65.34-56.46-97.86Z"/>
  <path class="cls-2" d="M460.37,309.99c-2.86,1.97-5.52,2.78-8.86,2.78-119.43-.13-238.85-.19-358.28-.29-2.18,0-4.29.18-6.44-1.09-9.4-5.55-11.91-5.13-19.78,2.6v7.45c5.45,7.54,10.92,9.95,16.64,5.83,4.1-2.96,8.11-3.08,12.53-3.08,117.94.08,235.87.16,353.81.22,3.7,0,6.92.3,10.29,2.8,4.87,3.61,10.59,3.05,14.74-1.68,3.7-4.2,3.76-9.38.09-13.62-4.08-4.72-9.6-5.47-14.73-1.92Z"/>
  <path class="cls-2" d="M146.99,336.01c-22.26.32-41.58,8.14-58.75,21.93-1.9,1.52-3.38,4.14-6.07,3.97-7.08-.44-11.36,3.63-15.16,8.7v8.94c3.83,6.02,8.73,10.61,16.41,8.62,7.47-1.93,10.88-7.36,10.14-15.14-.19-2.01.92-3.1,2.31-4.31,12.14-10.51,26.19-16.74,42.03-19.19,3.88-.6,5.42.36,5.21,4.52-.3,5.94-.07,11.91-.07,17.87,0,9.08-1.25,10.55-10.07,11.02-1.87.1-3.79-.71-5.69-1.12-6.5-1.39-13.43,2.47-15.42,8.59-2.25,6.9.94,13.85,7.59,16.54,6.4,2.59,14.35.5,16.35-5.9,2.07-6.63,6.64-7.53,11.74-7.66,6.53-.16,8.75-3.33,8.71-9.31-.09-12.91-.12-25.81.01-38.72.07-6.45-2.38-9.47-9.27-9.37Z"/>
  <path class="cls-4" d="M1808.67,529.53c-5.5,16.52-11.58,32.84-17.54,49.52-2.72-2.27-2.91-5.14-3.81-7.62-5.47-15.11-11.15-30.16-16.18-45.41-1.92-5.84-6.36-4.85-9.52-3.82-3.89,1.27-.46,4.51.29,6.57,7.13,19.51,14.54,38.92,21.68,58.42,1.31,3.58,2.6,5.61,7.13,5.68,4.85.08,5.63-2.68,6.87-5.97,6.97-18.47,14.01-36.91,21.03-55.36v-10.43c-5.65.07-8.2,3.13-9.96,8.41Z"/>
  <path class="cls-9" d="M183.95,600.79c-5-4.13-10.38-4.33-15.67-.56-4.87,3.46-6.86,11.15-2.89,15.81,3.93,4.61,3.58,9.41,3.6,14.51.03,8.9,0,17.8.02,26.7.01,4.43-.01,8.88,2.35,12.89h8.94c1.42-2.94,1.81-6.01,1.77-9.28-.12-10.38,0-20.77-.07-31.15-.03-4.69.03-8.88,3.69-12.92,4.2-4.64,2.89-12.15-1.76-15.99Z"/>
  <path class="cls-2" d="M134.14,296.08c39,.05,77.99.03,116.99.03,53.9,0,107.8-.01,161.7.02,5.26,0,11.15-.53,11.12-6.89-.03-6.4-5.99-6.8-11.22-6.78-10.93.05-21.86.01-32.79.01-4.95,0-9.9,0-16.01,0,3.79-3.91,6.28-6.65,8.95-9.2,6.31-6,11.37-13.18,21.34-14.7,6.04-.92,7.95-7.19,6.53-13.16-1.35-5.69-5.36-8.84-11.34-8.85-6.77-.01-11.56,3.91-11.53,10.17.04,6.62-3.98,9.65-7.58,13.56-1.83,1.99-3.24,2.44-5.39.18-5.65-5.93-11.5-11.68-17.36-17.4-1.82-1.78-2.02-3.25.05-4.83,7.81-5.99,12.06-16.19,23.6-17.93,6.53-.98,8.77-6.83,7.48-13.29-1.25-6.27-5.52-9.2-11.73-9.19-6.07,0-11.41,4.58-11.05,10.67.3,4.98-1.85,7.81-4.99,10.75-3.08,2.88-5.89,6.06-9.02,8.88-1.72,1.55-2.93,4.88-5.82,3.65-2.69-1.15-1.75-4.22-1.86-6.67-.3-6.9-4.57-11.02-11.3-11.16-6.45-.13-11.01,3.68-11.8,9.88-.89,6.95,2.81,12.02,9.97,13.16,2.73.44,5.26.63,7.4,2.81,9.22,9.39,18.59,18.63,27.87,27.97.95.95,2.45,1.63,1.75,3.61-1.16,3.25-11.86,11.7-14.9,11.01-6.16-1.4-9.45-5.11-9.61-11.92-.12-5.13-3.45-8.79-8.59-9.97-4.92-1.13-9.48-.15-12.6,4.22-3.02,4.22-3.3,8.69-.64,13.27.82,1.41,2.94,2.1,2.34,4.5-4.67,0-9.41-.28-14.09.08-4.73.37-5.92-1.61-5.86-6.01.19-16.14.12-32.28.05-48.42-.02-4.23,1.39-7.5,4.5-10.51,9.47-9.14,18.71-18.51,27.96-27.88,3.01-3.04,5.61-5.33,10.77-4.4,6.1,1.1,11.03-3.78,11.78-9.83.78-6.2-2.65-11.49-8.48-13.12-5.59-1.56-12.89,1.42-13.82,6.98-1.11,6.61-5.39,10.36-9.58,14.51-9.17,9.09-18.24,18.29-27.64,27.13-4.12,3.87-5.96,7.98-5.78,13.7.38,12.05.12,24.12.12,37.53-6.39-5.63-12.07-9.41-12.63-17.77-.43-6.39-5.84-9.3-11.76-8.98-5.92.31-10.22,3.68-10.94,10.17-.7,6.34,2.82,12.63,8.59,12.8,13.06.39,17.25,11.96,25.16,18.74,2.16,1.85,2.13,5.11-2.48,5.29-11.39.44-22.36,1.31-30.29-10.23-4.98-7.24-12.17-13.06-18.8-19.04-4.02-3.63-4.32-5.72-.16-9.77,22.24-21.65,44.13-43.66,66.11-65.58,4.04-4.02,7.78-7.77,14.17-8.66,6.24-.87,8.7-6.17,8.08-12.34-.65-6.4-4.67-9.72-10.88-10.15-5.89-.41-11.51,2.33-11.48,8.07.05,9.74-6.49,14.39-12.09,20.06-8.28,8.4-8.52,8.54-16.73-.24-3.43-3.66-9.23-5.91-7.71-13.17,1.36-6.49-3.29-11.81-9.57-12.73-5.9-.86-11.58,2.77-13.23,8.46-1.74,5.98,1.2,12.59,7.53,14.15,9.06,2.23,13.48,9.76,19.33,15.52,4.77,4.69,7.29.23-11.15,18.89-.35.35-.76.66-1.05,1.06-2.6,3.61-4.77,2.81-7.57-.13-7.19-7.55-14.69-14.81-22.08-22.17-2.77-2.76-5.38-4.91-4-10.05,1.46-5.47-3.88-11.42-9.53-12.25-6.15-.9-10.76,1.62-13.18,7.35-2.31,5.46-.07,13.05,5.49,14.43,10.11,2.5,15.27,10.59,21.82,17.03,5.74,5.65,16.37,10.71,15.69,17.37-.65,6.39-10.28,11.86-15.97,17.73-.35.36-.74.67-1.04,1.06-2.43,3.2-4.54,2.69-7.18-.06-7.41-7.69-15.01-15.19-22.62-22.68-3.39-3.33-6.17-6.39-6.17-11.94,0-6.23-6.24-10.24-12.71-9.63-6.06.57-10.46,5.33-10.57,11.41-.11,6.16,4,11.32,10.24,11.43,4.49.08,7.32,1.97,10.23,4.9,18.72,18.86,37.57,37.59,56.3,56.43,1.45,1.46,3.75,2.41,3.98,5.04-10.76,0-21.36-.04-31.96.02-3.18.02-4.84-2.15-6.7-4.13-9.65-10.34-19.26-20.71-28.98-30.99-2.47-2.61-4.01-5.2-4.12-9.09-.21-7.23-5.14-11.26-12.22-10.89-6.43.33-10.59,4.54-10.81,10.93-.25,7.18,3.59,11.47,11.05,12.19,1.95.19,3.94-.26,5.53,1.45,9.04,9.73,18.11,19.42,28.5,30.54-8.05,0-14.17-.18-20.28.06-4.35.17-6.59-.45-6.71-5.85-.14-6.22-4.65-9.75-10.87-10.1-6.24-.35-11.51,2.71-11.87,8.82-.43,7.27-4.11,7.21-9.41,7.18-5.67-.03-13.78-1.47-13.6,7.11.15,7.7,7.78,6.78,13.39,6.79Z"/>
  <path class="cls-7" d="M1036.75,304.11c.01,29.3.11,58.61-.1,87.91-.04,5.01,1.08,7.3,6.53,6.75,4.43-.45,8.97-.44,13.4,0,5.24.51,6.66-1.33,6.61-6.55-.25-30.05-.1-60.09-.14-90.14,0-7.2-.48-14.36-1.7-21.48-4.48-26.23-21.86-40.44-47.69-38.83-10.49.65-19.59,4.87-28.03,10.89-6.96,4.96-12.91,11.09-19.66,17.35-8.1-21.06-23.61-29.23-44.71-28.24-11.07.52-20.66,4.99-29.32,11.5-5.48,4.12-10.52,8.8-16.59,13.93-.18-2.68-.28-4.17-.39-5.65-1.23-16.3-1.24-16.03-17.35-16.24-5.56-.08-6.39,1.89-6.33,6.8.25,23.34.11,46.68.11,70.03s.11,47.18-.1,70.77c-.04,4.56,1.17,6.24,5.84,5.87,4.94-.39,9.96-.45,14.89.01,5.13.48,6.09-1.59,6.05-6.28-.2-29.3,1.03-58.67-.56-87.88-.85-15.55,5.53-24.63,17.22-32.16,1.04-.67,2.07-1.37,3.12-2.02,22.27-13.75,42.8-3.85,45.66,22.01.14,1.23.24,2.47.25,3.71.2,27.8.43,55.6.55,83.4.08,19.26.02,19.01,19.3,19.28,5.64.08,6.97-1.44,6.93-6.98-.28-32.78-.15-65.56-.1-98.34,0-2.38-.76-4.95,1.29-7.05,8.5-8.76,17.12-17.38,29.32-20.87,15.12-4.33,28.55,2.64,33.06,17.19,2.15,6.92,2.64,14.12,2.64,21.34Z"/>
  <path class="cls-7" d="M1259.95,435.16c3.3,16.53,15.63,24.77,30.62,29.2,25.09,7.41,50.04,6.22,74.39-3.39,10.27-4.05,19.16-10.32,26.01-19.23,19.57-25.49,7.9-55.51-23.58-60.87-15.82-2.69-31.72-1.15-47.58-1.5-5.24-.12-10.44-.29-15.54-1.41-13.73-3-18.47-15.94-10.08-27.27,2.81-3.8,5.43-5.69,11.01-3.73,30.18,10.64,63.29-5.42,71.3-34.26,4.64-16.68,2.32-32.32-9.56-47.16,9.45,0,17.15-.26,24.83.1,4.71.22,6.29-1.54,5.74-5.99-.21-1.71-.29-3.52.01-5.2,1.36-7.51-1.64-9.17-9.08-9.26-18.25-.21-36.47,1.49-54.81-2.35-25.95-5.43-50.82,6.14-62.09,26.61-10.47,19.03-9.58,47.14,10.37,65.46,3.07,2.81,1.71,3.91-.65,6.16-18.05,17.29-18.02,34.46.03,51.67-1.15.96-2.24,1.94-3.4,2.82-13.19,9.95-21.36,22.47-17.95,39.61ZM1293.88,278.68c7.79-16.59,27.81-22.87,44.24-13.88,10.49,5.74,16.59,17.19,16.64,31.23.09,25.6-21.25,42.54-43.23,34.31-18.63-6.97-27.06-31.64-17.65-51.67ZM1296,400.09c.91-.66,2.36-1.2,3.4-.99,16.48,3.42,33.21.29,49.75,2.03,2.22.23,4.46.34,6.66.69,7.58,1.22,14.69,3.3,17.53,11.6,2.89,8.46.03,15.78-5.64,21.88-11.53,12.38-26.87,14.88-42.06,15.64-10.41-.64-20.06-1.56-28.91-5.93-8.55-4.22-14.6-10.73-14.6-20.72,0-10.45,5.66-18.21,13.88-24.19Z"/>
  <path class="cls-7" d="M655.4,347.47c2.02-24.65-9.34-42.4-30.99-53.8-3.5-1.84-7.14-3.43-10.72-5.12-16.11-7.59-33.13-13.2-48.61-22.14-11.35-6.56-17.29-16.26-15.11-29.7,2.02-12.44,10.22-19.38,21.79-22.78,18.32-5.4,35.22-1.52,51.34,7.91,4.26,2.49,7.51,9.21,12.28,7.38,4.26-1.63,6.76-7.61,10.32-11.39,2.82-2.99,2.64-4.92-.58-7.64-25.83-21.85-54.89-28.15-86.72-16.61-25.48,9.24-38.19,30.71-35.21,57.13,2.21,19.62,14.51,32.3,31.21,40.71,15.23,7.68,31.11,14.08,46.66,21.13,7.24,3.28,14.5,6.73,19.93,12.71,14.6,16.08,7.6,42.09-13.82,49.75-23.9,8.55-45.74,2.6-66.26-11.03-4.58-3.04-7.94-10.6-13.13-8.99-4.66,1.44-7.51,8.19-11.59,12.15-3.48,3.38-3.12,5.51.4,8.66,19.3,17.26,41.71,26.28,72.18,26.49,6.01.27,16.27-1.17,26.18-4.77,23.52-8.56,38.34-24.59,40.43-50.04Z"/>
  <path class="cls-7" d="M1615.38,380.35c2.75,18.61,2.75,18.34,18.49,18.47,5.22.04,6.01-1.82,5.97-6.39-.2-23.08-.06-46.15-.11-69.23-.02-11.9.26-23.79-1.35-35.65-4.03-29.78-22.22-45.8-52.29-45.83-16.23-.02-31.29,4.43-45.68,11.61-15.33,7.65-15.15,7.55-6.72,22.23,2.29,3.99,3.84,3.56,7.13,1.47,10.1-6.4,20.89-11.19,32.85-13.15,23.17-3.78,38.01,8.25,39.41,31.73.29,4.87-.99,6.09-5.8,6.7-21.4,2.69-42.73,5.98-62.2,16.17-20.85,10.91-29.44,29.3-24.43,52.07,5.05,22.94,28.53,36.09,54.84,30.72,14.95-3.05,27.34-11.11,39.89-20.92ZM1546.26,365.24c-3.98-13.27,1.43-25.52,14.95-32.81,15.07-8.12,31.68-10.74,48.38-13.02,3.6-.49,3.57,1.32,3.56,3.72-.02,5.69,0,11.39,0,17.08,0,.5.07,1,0,1.48-1.13,7.1,3.37,15.55-2.52,21.23-9.87,9.51-21.35,17.02-35.67,18.05-15.09,1.08-25.39-4.73-28.69-15.73Z"/>
  <path class="cls-7" d="M797.67,398.67c5.01.89,6.16-1.38,6.13-6.16-.21-30.02,0-60.04-.19-90.06-.04-6.41-.68-12.89-1.81-19.2-4.7-26.28-22.45-41.05-49.17-41.54-17.26-.32-33.27,4.15-48.53,11.86-14.89,7.52-14.77,7.45-6.3,21.8,2.12,3.59,3.48,4.16,7.15,1.73,10.2-6.75,21.35-11.45,33.55-13.36,20.61-3.23,34.76,6.39,38.01,25.86q1.89,11.33-9.43,13.17c-1.96.32-3.94.48-5.89.8-19.09,3.17-38.12,6.68-55.1,16.68-18.42,10.85-26.16,29.51-21.16,50.29,5.68,23.63,29.16,36.45,55.5,30.56,14.62-3.27,26.77-11.11,39.27-20.85.91,6.54.08,12.74,2.72,16.52,3.28,4.68,10.09.97,15.27,1.89ZM760.2,373.95c-12.78,7.2-25.96,10.37-39.67,3.62-12.3-6.06-15.07-24.8-5.94-36.31,4.78-6.02,11.25-9.62,18.23-12.38,12.76-5.05,26.14-7.39,39.66-9.33,4.48-.64,5.05,1.03,4.93,4.68-.18,5.45-.05,10.92-.05,16.37,0,1.49-.28,3.04.04,4.46,3.45,15.14-5.82,22.47-17.21,28.89Z"/>
  <path class="cls-7" d="M1222.2,291.86c-2.06-33.17-21.84-50.73-55.1-50.11-15.41.29-29.95,4.41-43.37,11.69-18.85,10.23-15.15,5.11-6.49,22.31,1.83,3.64,3.35,3.48,6.56,1.46,9.68-6.08,19.96-10.82,31.37-12.96,24.74-4.63,40.16,7.39,41.58,32.47.22,3.83-.95,5.13-4.84,5.46-6.9.58-13.79,1.64-20.6,2.92-17.83,3.36-35.52,7.39-50.62,18.19-15.98,11.43-20.36,27.52-16.76,46.02,3.42,17.58,15.61,29.08,33.74,32.16,13.07,2.22,25.63-.01,37.63-5.77,8.24-3.96,15.44-9.53,23.51-15.09.93,6.01.12,12.56,2.98,16.31,3.49,4.57,10.58.93,16.04,1.73,3.67.54,5.36-.74,5.31-4.83-.48-33.99,1.18-68.02-.92-101.97ZM1180.9,373.16c-12.88,7.19-26.09,11.34-40.27,4.88-15.34-6.99-16.64-29.77-2.51-41.22,11.76-9.53,26.22-12.3,40.53-15.25,4.11-.85,8.38-.96,12.46-1.92,5.02-1.19,5.96.95,5.7,5.36-.31,5.18-.07,10.4-.07,15.6,0,1.24-.22,2.53.03,3.71,3.08,14.25-4.37,22.42-15.88,28.85Z"/>
  <path class="cls-7" d="M1496.77,265.31c4.09.26,9.15,3.59,11.8,1.1,2.54-2.38,2.19-7.82,3.13-11.9.34-1.45.67-2.91,1.16-4.31,1.66-4.77-.59-6.79-5.03-7.6-12.83-2.34-24.62-.29-35.21,7.73-7.62,5.77-13.12,13.31-19.23,22.82-.55-5.4-1.06-9.08-1.29-12.78-.96-15.01-.93-14.75-15.96-15.07-5.42-.11-7.04,1.07-7,6.81.28,42.45.1,84.91.2,127.37.01,6.14-2.71,14.25,1.11,17.92,4.13,3.96,12.3.65,18.65,1.34,5.31.58,6.66-1.51,6.61-6.64-.23-27.06.32-54.13-.26-81.18-.38-17.53,8.55-29.49,21.07-39.63,5.71-4.62,12.72-6.45,20.23-5.98Z"/>
  <path class="cls-2" d="M465.55,362.19c-3.79-.41-6.32-2.02-9.05-4.24-16.85-13.74-35.99-21.38-57.93-21.92-6.96-.17-10.15,2.31-9.85,9.44.28,6.43.06,12.89.06,19.34,0,6.45.12,12.9-.03,19.34-.15,6.03,2.1,8.99,8.6,9.37,3.6.22,8.31-.82,10.34,4.93,2.89,8.17,9.83,11.25,17.04,8.76,6.67-2.31,10.47-9.44,8.55-16.07-2.09-7.25-9.23-10.71-17.84-8.65-8.84,2.11-13.75-1.64-13.86-10.68-.07-5.7.29-11.43-.11-17.1-.36-5.03,1.66-5.8,6.08-5.06,15.51,2.58,29.29,8.73,41.32,18.92,2.15,1.82,2.56,3.78,2.62,6.44.21,8.31,5.11,13.37,12.59,13.51,7.27.14,12.92-4.94,13.44-12.07.56-7.64-3.84-13.35-11.97-14.23Z"/>
  <path class="cls-4" d="M1278.42,497.03c-4.96-.02-9.96.34-14.88-.1-5.3-.47-7.31.77-7.08,6.7.53,13.62.17,27.28.17,40.92,0,14.39.12,28.77-.08,43.16-.05,3.77.85,5.22,4.89,5.03,7.18-.34,14.4.11,21.58-.17,20.68-.82,34.92-12.99,38.98-33.21,1.27-6.33,1.8-12.76,1.46-19.23-1.49-28.44-16.7-43-45.03-43.09ZM1311.58,559.32c-3.82,15.82-15.34,24.31-32.82,24.38q-12.42.05-12.42-12.31c0-8.94,0-17.87,0-26.81,0-11.17.12-22.34-.07-33.51-.06-3.68.75-5.52,4.88-5.17,3.95.33,7.95-.05,11.91.15,14.71.75,25.15,9.44,28.58,23.77,2.35,9.82,2.32,19.69-.05,29.5Z"/>
  <path class="cls-4" d="M1645.52,548.24c.07-3.7-1.4-4.66-4.82-4.58-7.45.19-14.91.25-22.35-.02-4.09-.15-4.11,2.06-4.28,5.08-.2,3.59,1.58,3.89,4.48,4.01,5.63.23,13.11-2.63,16.39,1.27,3.43,4.06.74,11.45,1.05,17.38.05.99-.11,2,.02,2.98.58,4.2-1.72,6.25-5.22,7.89-16.09,7.55-34.52.61-41.53-15.91-4.08-9.6-4.61-19.69-3.4-29.94,1.58-13.4,6.93-24.59,20.17-29.73,12.45-4.83,23.83-2.33,32.95,7.88,7.1-7.12,7.1-7.22-.52-12.76-18.58-13.53-47.56-6.06-57.49,15.8-8.76,19.27-8.64,39.14,1.85,57.95,11.23,20.14,41.12,25.3,59.07,10.74,2.22-1.8,3.69-3.6,3.63-6.77-.2-10.42-.2-20.86,0-31.28Z"/>
  <path class="cls-2" d="M308.32,138.18c-5.33-8.31-10.5-15.88-18.07-17.38-16.1-3.2-15.81-13.87-14.79-25.86.19-2.2.03-4.44.03-7.9,3.14,1.76,5.34,2.5,6.91,3.94,10.43,9.59,19.98,8.55,29.85-1.23,4.41-4.37,9.69-2.9,13.37,2.39.7,1,.93,2.37,1.72,3.26,3.33,3.75,7.39,5.22,11.91,2.38,4.36-2.74,5.66-6.89,3.49-11.61-2.27-4.94-7.68-6.88-11.14-4.24-6.88,5.24-10.74.57-15.3-2.66-4.64-3.28-9.08-6.84-13.57-10.25.97-2.6,3.21-3.43,4.96-4.72,10.57-7.76,10.56-7.71,20.25,1.89,3.95,3.91,8.45,4.32,12.62.66,4.18-3.67,4.51-8.46.93-12.58-3.86-4.44-8.79-4.31-13.22-.63-1.76,1.46-3.05,3.79-5.37,1.44-4.9-4.97-8.7-1.95-12.74,1.25-3.11,2.46-6.43,4.66-9.7,6.91-1.6,1.1-3.02,2.37-5.32.9-6.26-4-12.8-7.57-18.96-11.72-1.59-1.07-2.53-3.22-4.84-2.37-2.88,1.06-1.85,3.59-1.85,5.73.03,17.38-.14,34.76.13,52.14.08,5.46-2.01,8.08-7.21,9.38-11.1,2.76-18.75,10.17-26.26,20.81,24.7-10.42,47.9-10.35,72.17.06ZM275.62,58.75c12.58,6.57,23.36,13.39,33.48,21.29,3.21,2.5,2.8,4.07-.33,5.86-.21.12-.42.26-.62.41-10.34,7.92-9.78,6.57-21.61,1.69-14.87-6.14-10.6-17.52-10.93-29.26Z"/>
  <path class="cls-2" d="M358.18,355.71c2.96,0,6.1.43,8.05-2.58,1.3-2,1.49-4.14.42-6.36-1.79-3.73-5.2-3.2-8.38-3.21-55.09-.22-110.17-.44-165.26-.62-3.47-.01-6.97.03-10.4.45-3.44.43-5.21,2.86-5.13,6.23.08,3.09,2.05,5.03,5,5.66,1.67.35,3.46.18,5.19.19,28.29,0,56.58,0,84.87,0,0,.08,0,.16,0,.23,28.54,0,57.08,0,85.62,0Z"/>
  <path class="cls-7" d="M584.44,543.65c-7.44.24-14.9.22-22.34,0-3.49-.1-4.73.9-4.76,4.56-.03,3.68,1.23,4.71,4.71,4.51,4.45-.25,8.93-.05,13.4-.06,2.09,0,4.1,0,4.1,2.91,0,7.2,0,14.39,0,21.59,0,2.8-2.34,3.67-4.21,4.68-13.13,7.12-30.69,2.83-39.05-9.46-9.87-14.51-9.86-40.71.02-55.13,9.64-14.07,29.65-17.13,42.41-6.25,2.82,2.4,4.29,3.77,7.55.22,3.75-4.09.32-5.55-1.76-7.43-16.85-15.26-46.93-9.71-58.44,11.05-9.19,16.57-9.61,34.21-3.74,51.84,7.81,23.48,31.73,33.93,54.74,24.5,10.28-4.21,11.94-6.65,11.94-17.52,0-3.23,0-6.45,0-9.68,0-5.21-.17-10.43.06-15.63.16-3.52-1-4.82-4.64-4.71Z"/>
  <path class="cls-8" d="M377.18,507.81c-5.05-4.17-10.48-4.26-15.72-.41-5.15,3.78-6.58,11.38-2.35,16.51,3.04,3.68,3.34,7.36,3.34,11.6-.05,39.47-.03,78.93-.03,118.4,0,4.89-.02,10.22,6.72,10.12,6.72-.1,6.49-5.42,6.48-10.31-.04-19.86-.02-39.71-.02-59.57,0-19.86,0-39.71,0-59.57,0-3.68.11-6.88,3.06-10.11,4.52-4.94,3.45-12.6-1.47-16.66Z"/>
  <path class="cls-8" d="M296.49,559.07c4.54,3.87,12.01,3.8,16.43-.15,4.6-4.12,5.79-11.18,1.57-16.04-3-3.46-3.23-6.91-3.23-10.88.02-39.42.02-78.85,0-118.27,0-4.97.62-10.88-6.75-10.75-7.4.13-6.4,6.13-6.41,11.02-.03,19.84-.01,39.67-.01,59.51s-.02,38.18.02,57.28c0,4.44-.11,8.38-3.5,12.25-4.15,4.74-2.72,12.11,1.89,16.05Z"/>
  <path class="cls-9" d="M246.76,622.42c.04-18.85.02-37.7.02-56.56,0-15.63,0-31.25,0-46.88,0-4.71.08-9.43-.03-14.14-.11-4.44-1.6-7.97-6.88-7.72-4.72.23-6.21,3.37-6.12,7.64.04,1.98,0,3.97,0,5.95,0,37.21,0,74.42,0,111.62,0,3.43.02,6.5-2.71,9.55-4.68,5.2-4.03,12.27.62,16.69,4.76,4.53,11.89,4.58,16.83.12,4.76-4.3,5.56-11.23,1.09-16.69-2.5-3.05-2.82-6.08-2.81-9.58Z"/>
  <path class="cls-9" d="M184.47,424.96c-4.51-4.46-11.29-4.85-16.27-.94-4.8,3.77-6.69,11.13-2.74,15.94,3.62,4.4,3.55,8.93,3.55,13.84,0,34.72-.05,69.45.05,104.17.01,4.82-.63,10.93,6.79,10.82,6.93-.11,6.19-5.71,6.19-10.43,0-17.61,0-35.22,0-52.83s.04-36.21-.03-54.32c-.02-3.78.32-6.97,3.24-10.1,4.3-4.61,3.53-11.86-.78-16.14Z"/>
  <path class="cls-5" d="M1083.15,538.31c-1.61-13.27-11.17-19.46-24.53-17.75-6.67.85-11.92,4.42-18.15,9.15,0-12.87-.06-24.52.04-36.17.03-3.27.02-5.48-4.54-5.39-4.39.08-5.31,1.55-5.29,5.6.14,31.28.13,62.57.01,93.85-.01,3.74.84,5.21,4.91,5.19,3.89-.01,5.03-1.06,4.97-4.99-.24-13.9.08-27.81-.2-41.71-.08-3.91,1.25-6.51,4-8.96,6.4-5.71,13.53-10.3,22.18-6.68,8.34,3.49,7.82,11.88,7.91,19.3.16,12.91.13,25.82-.02,38.73-.04,3.23.93,4.68,4.21,4.15,2.12-.34,5.38,1.32,5.3-2.99-.32-17.12,1.27-34.32-.8-51.34Z"/>
  <path class="cls-4" d="M1544.08,567.18c-.1,0-.2,0-.3,0,0-7.69.63-15.44-.12-23.05-1.97-19.76-13.98-27.69-33.16-22.41-4.8,1.32-9.18,3.62-13.51,6.08-3.25,1.85-3.08,3.43-1.27,6.33,1.89,3.03,3.26,3.5,6.21,1.23,4.57-3.54,9.95-5.42,15.75-6.08,8.61-.98,14.41,3.24,16.07,11.7.83,4.21.59,6.64-5.05,7.2-10.09.99-20.13,3.11-28.84,8.9-7.88,5.24-10.79,14.04-8.06,23.56,2.48,8.63,9.08,13.16,19,13.55,7.56.3,14.08-2.37,20.26-6.26,2.15-1.35,4.14-2.62,4.13,1.54-.01,4.78,3.58,2.9,5.89,3.13,3.65.36,2.97-2.45,2.99-4.56.04-6.95.02-13.9.02-20.85ZM1508.29,584.88c-4.05-1.29-6.77-3.95-7.34-8.4-.67-5.28.4-9.88,5.15-12.96,7.69-4.98,16.56-6.16,25.29-7.78,2.69-.5,2.72,1.27,2.74,3.08.02,2.47,0,4.95,0,7.42,0,12.52-13.75,22.49-25.85,18.64Z"/>
  <path class="cls-4" d="M900.51,521.03c-17.79-3.42-32.91,7.47-36.6,27.25-2.83,15.18-.46,29.58,12.56,39.6,11.54,8.88,24.38,8.28,37.13,2.01,3.11-1.53,6.31-2.38,3.6-7.45-2.88-5.4-5.04-1.51-7.39-.27-15.81,8.36-32.86.67-36.27-16.33-.81-4.05-.8-6.52,4.64-6.08,6.16.5,12.39.12,18.59.11,6.7,0,13.39.04,20.09-.03,1.59-.02,3.27.48,4.27-1.83,5.46-12.64-6.53-34.26-20.63-36.97ZM908.44,551.17c-5.19,0-10.37,0-15.56,0-5.19,0-10.38.03-15.56-.02-1.86-.02-3.9.57-3.87-2.77.09-10.23,12.91-20.96,23.27-19.21,8.83,1.49,15.52,10.02,15.45,19.07-.02,3.19-1.72,2.93-3.72,2.93Z"/>
  <path class="cls-7" d="M1404.41,546.12c-.34-19.87-11.97-29.07-31.24-24.88-5.34,1.16-10.24,3.54-15,6.27-3.32,1.91-3.65,3.64-1.58,7.01,2.33,3.79,4.06,1.96,6.36.44,4.61-3.03,9.6-5.08,15.16-5.66,9-.93,13.95,2.73,16.28,11.43,1.38,5.15.09,6.86-5.34,7.48-10.08,1.16-20.13,3.13-28.77,9.03-7.64,5.22-10.56,14.54-7.79,23.76,2.41,8.03,9.28,12.64,18.66,13.18,8.7.51,15.82-3.2,23.88-8.33.5,4.69,1.65,7.84,6.77,6.82,5.08-1.01,2.45-4.83,2.51-7.13.31-13.14.33-26.3.1-39.44ZM1395,566.72c-.27,4.21,1.27,9.12-4.41,12.5-6.79,4.04-13.41,7.71-21.57,5.65-4.56-1.15-7.04-4.55-7.66-9.09-.69-5.1,1.18-9.32,5.45-12.21,7.63-5.16,16.59-6.17,25.33-7.85,2.49-.48,2.9,1.06,2.86,3.05-.05,2.48-.01,4.96-.01,7.94Z"/>
  <path class="cls-4" d="M1685.13,529.66c-7.49,7.8-9.78,17.51-9.54,27.96,0,1.98-.17,3.97.03,5.93,1.64,16.43,13.85,29.54,28.41,30.57,16.2,1.15,29.22-8.22,33.53-24.39,2.54-9.55,2.23-19.16-1.1-28.47-7.84-21.95-35.44-28.16-51.32-11.6ZM1729.18,557.99c-.13,16.06-9.46,27.57-22.22,27.43-12.48-.14-21.4-11.25-21.71-27.15-.14-7.08,1.23-13.83,5.29-19.79,8.5-12.46,25.45-12.3,33.57.39,3.7,5.78,5.36,12.22,5.07,19.12Z"/>
  <path class="cls-4" d="M682.56,551.89c-1.76-13.97-7.67-25.01-21.83-29.9-11.89-4.1-24.79-.56-33.07,8.89-12.02,13.71-11.62,40.14.82,53.52,13.86,14.91,37.65,12.66,48.43-4.67,4.3-6.91,6.11-14.52,5.68-22.65,0-1.73.19-3.49-.03-5.19ZM650.67,585.42c-12.65-.13-21.54-11.63-21.69-27.73-.05-5.82.95-11.34,3.62-16.46,3.81-7.28,9.58-11.83,18.19-11.9,8.64-.07,14.35,4.52,18.34,11.69,2.83,5.09,3.55,10.72,3.83,16.42-.03,16.41-9.35,28.1-22.3,27.96Z"/>
  <path class="cls-10" d="M843.86,496.95c-19.86.14-39.72.1-59.58.04-2.9,0-4.65.46-4.53,4.02.11,3.14.39,5.18,4.38,5.03,6.69-.26,13.42.2,20.1-.16,4.39-.24,5.33,1.41,5.26,5.47-.23,12.65-.09,25.31-.09,37.97,0,12.16-.09,24.32.07,36.48.04,2.89-2.02,6.9,4.27,7.07,6.09.17,5.41-3.15,5.41-6.95-.04-24.32.13-48.64-.14-72.96-.06-5.29.87-7.68,6.79-7.1,5.9.58,11.91-.02,17.86.18,3.39.12,4.86-.77,4.88-4.5.02-3.62-1.16-4.6-4.68-4.58Z"/>
  <path class="cls-4" d="M993.1,580.31c-14.85,10.4-31.25,4.23-35.67-13.44-1.52-6.07-1.52-12.34-.03-18.42,4.42-18,19.42-23.92,34.99-13.6,3.24,2.15,4.16.44,5.9-1.35,2.13-2.18,2.57-4.01-.15-6.07-4.2-3.18-8.6-5.76-13.93-6.64-20.9-3.45-37.61,12.67-37.64,36.41,0,1.49-.14,2.99.02,4.47,1.43,12.69,5.84,23.77,18.2,29.52,11.5,5.35,22.7,3.95,33.07-3.34,2.58-1.81,5.42-3.29,2.22-7.54-2.94-3.9-4.47-1.77-6.99,0Z"/>
  <path class="cls-3" d="M1464.51,584.56c-9.33,2.71-13.72-.53-14.07-10.22-.33-9.17-.23-18.36-.25-27.53q-.03-15.28,14.78-15.97c.25-.01.5-.03.74,0,3.34.45,4.16-1.15,4.19-4.29.03-3.38-.73-4.98-4.5-4.8-4.7.23-10.73,1.65-13.8-.64-3.78-2.82-1.2-9.24-1.31-14.08-.09-3.66-1.4-4.61-4.82-4.68-3.47-.06-4.19,1.44-4.06,4.46.14,3.21-.42,6.47-.13,9.66.42,4.59-1.36,6.32-5.9,5.97-2.71-.21-5.36-.2-5.24,4.11.11,3.95,2.03,4.69,5.15,4.25,5.12-.72,5.61,2.16,5.46,6.22-.23,6.2-.06,12.41-.06,18.61h.04c0,6.45-.28,12.92.06,19.35.83,15.83,10.59,22.47,25.8,17.93,2.92-.87,5.92-1.1,4.51-5.67-1.25-4.04-3.15-3.69-6.58-2.69Z"/>
  <path class="cls-4" d="M763.74,522.41c-1.82-1.1-4.87-.69-7.23-.23-2.65.51-2.52,3.48-3.23,5.44-6.24,17.15-12.34,34.36-18.92,52.76-1.58-4.19-2.72-7.08-3.78-10-5.36-14.89-10.94-29.72-15.92-44.74-1.82-5.5-5.91-4.24-8.97-3.55-4.98,1.12-.94,4.53-.3,6.29,7.16,19.76,14.72,39.38,21.97,59.11,1.35,3.68,2.92,5.39,7.27,5.35,4.31-.04,5.25-2.18,6.44-5.44,7.22-19.75,14.68-39.41,21.86-59.16.66-1.81,3.32-4.32.79-5.84Z"/>
  <path class="cls-1" d="M1169.24,483.96c-5.5.02-4.32,3.57-4.33,6.55-.05,21.85-.03,43.69-.03,65.54s.02,43.69-.02,65.54c0,3.34-.46,6.4,4.7,6.25,5.12-.14,3.81-3.55,3.81-6.21.05-43.69.06-87.38-.01-131.07,0-2.82,1.57-6.62-4.14-6.59Z"/>
  <path class="cls-6" d="M376.95,417.76c-5.1-4-10.65-3.85-15.76-.07-5.13,3.79-6.31,11.39-1.94,16.52,2.95,3.47,3.22,6.93,3.17,10.89-.05,4.46-.01,8.92-.01,13.37,0,5.2-.02,10.4,0,15.6.03,4.71,1.39,8.59,7.01,8.39,5.21-.19,6.21-3.94,6.19-8.34-.06-9.66,0-19.32-.03-28.98-.01-3.94.18-7.39,3.19-10.85,4.47-5.15,3.32-12.5-1.83-16.54Z"/>
  <path class="cls-6" d="M311.25,610.68c0-5.59.08-10.78-.02-15.98-.09-4.53-2.01-7.89-7.03-7.62-4.53.25-6.17,3.41-6.14,7.71.06,8.16-.04,16.32.03,24.48.04,5.14.02,9.77-3.82,14.36-3.83,4.57-2.7,10.36,1.78,14.72,4.72,4.6,10.2,5.04,15.54,1.4,5.03-3.44,7.79-9.38,4.25-14.12-6.05-8.09-4.11-16.75-4.58-24.95Z"/>
  <path class="cls-9" d="M246.73,438.41c.2-3.95.05-7.91.05-11.86,0-4.7-.03-9.39.01-14.09.05-4.74-.37-9.54-6.45-9.68-6.14-.14-6.68,4.52-6.62,9.36.1,8.4-.02,16.81.05,25.22.04,3.97-.31,7.36-3.32,10.77-4.4,4.99-3.12,12.41,1.79,16.58,4.69,3.99,11.62,3.84,16.25-.35,4.85-4.39,5.72-11.4,1.15-16.57-2.63-2.97-3.09-5.83-2.91-9.37Z"/>
</svg>